<?xml version="1.0" encoding="UTF-8" standalone="no"?>
<svg
   xmlns:dc="http://purl.org/dc/elements/1.1/"
   xmlns:cc="http://creativecommons.org/ns#"
   xmlns:rdf="http://www.w3.org/1999/02/22-rdf-syntax-ns#"
   xmlns:svg="http://www.w3.org/2000/svg"
   xmlns="http://www.w3.org/2000/svg"
   xmlns:sodipodi="http://sodipodi.sourceforge.net/DTD/sodipodi-0.dtd"
   xmlns:inkscape="http://www.inkscape.org/namespaces/inkscape"
   height="68"
   width="62"
   inkscape:version="1.0 (4035a4fb49, 2020-05-01)"
   sodipodi:docname="memoria.svg"
   id="svg74"
   version="1.1"
   viewBox="0 0 62 68">
  <metadata
     id="metadata78">
    <rdf:RDF>
      <cc:Work
         rdf:about="">
        <dc:format>image/svg+xml</dc:format>
        <dc:type
           rdf:resource="http://purl.org/dc/dcmitype/StillImage" />
        <dc:title>drawers-tall</dc:title>
      </cc:Work>
    </rdf:RDF>
  </metadata>
  <sodipodi:namedview
     fit-margin-bottom="0"
     fit-margin-right="0"
     fit-margin-left="0"
     fit-margin-top="0"
     inkscape:current-layer="svg74"
     inkscape:window-maximized="1"
     inkscape:window-y="36"
     inkscape:window-x="0"
     inkscape:cy="34"
     inkscape:cx="31"
     inkscape:zoom="4.90625"
     showgrid="false"
     id="namedview76"
     inkscape:window-height="1015"
     inkscape:window-width="1920"
     inkscape:pageshadow="2"
     inkscape:pageopacity="0"
     guidetolerance="10"
     gridtolerance="10"
     objecttolerance="10"
     borderopacity="1"
     bordercolor="#666666"
     pagecolor="#ffffff" />
  <defs
     id="defs4">
    <style
       id="style2">.cls-1{isolation:isolate;}.cls-2{mix-blend-mode:multiply;}.cls-13,.cls-3{fill:none;stroke:#302a27;stroke-linecap:round;stroke-linejoin:round;stroke-width:2px;}.cls-3{opacity:0.24;}.cls-4{fill:#606769;}.cls-5{fill:#fcc49a;}.cls-6{fill:#f3d16f;}.cls-7{fill:#e4a859;}.cls-8{fill:#f7a377;}.cls-9{fill:#e67e59;}.cls-10{fill:#302a27;}.cls-11{fill:#fce5a0;}.cls-12{fill:#434a4f;}</style>
  </defs>
  <title
     id="title6">drawers-tall</title>
  <g
     transform="translate(-33,-30)"
     id="g72"
     class="cls-1">
    <g
       class="cls-2"
       id="icons">
      <line
         id="line8"
         y2="97"
         x2="90"
         y1="97"
         x1="38"
         class="cls-3" />
      <g
         data-name="&lt;Group&gt;"
         id="_Group_">
        <path
           id="path10"
           d="m 44,91 v 5 a 1,1 0 0 1 -1,1 h -1.56 a 2.009,2.009 0 0 1 -1.9,-1.37 L 38,91 Z"
           class="cls-4" />
        <path
           id="path12"
           d="m 90,91 -1.54,4.63 A 2.009,2.009 0 0 1 86.56,97 H 85 a 1,1 0 0 1 -1,-1 v -5 z"
           class="cls-4" />
        <polygon
           id="polygon14"
           points="92,35 36,35 34,35 34,31 94,31 94,35 "
           class="cls-5" />
        <path
           id="path16"
           d="M 86,73 V 85 H 42 V 73 Z"
           class="cls-6" />
        <rect
           id="rect18"
           height="3"
           width="44"
           y="82"
           x="42"
           class="cls-7" />
        <path
           id="path20"
           d="M 86,41 V 53 H 42 V 41 Z"
           class="cls-6" />
        <path
           id="path22"
           d="M 86,57 V 69 H 42 V 57 Z"
           class="cls-6" />
        <path
           id="path24"
           d="M 92,35 V 91 H 36 V 35 Z M 86,85 V 73 H 42 V 85 Z M 86,69 V 57 H 42 V 69 Z M 86,53 V 41 H 42 v 12 z"
           class="cls-8" />
        <rect
           id="rect26"
           height="3"
           width="56"
           y="88"
           x="36"
           class="cls-9" />
        <rect
           id="rect28"
           height="3"
           width="56"
           y="35"
           x="36"
           class="cls-9" />
        <circle
           id="circle30"
           r="1"
           cy="47"
           cx="74"
           class="cls-10" />
        <circle
           id="circle32"
           r="1"
           cy="63"
           cx="74"
           class="cls-10" />
        <circle
           id="circle34"
           r="1"
           cy="79"
           cx="74"
           class="cls-10" />
        <circle
           id="circle36"
           r="1"
           cy="47"
           cx="54"
           class="cls-10" />
        <circle
           id="circle38"
           r="1"
           cy="63"
           cx="54"
           class="cls-10" />
        <circle
           id="circle40"
           r="1"
           cy="79"
           cx="54"
           class="cls-10" />
        <rect
           id="rect42"
           height="3"
           width="44"
           y="66"
           x="42"
           class="cls-7" />
        <rect
           id="rect44"
           height="3"
           width="44"
           y="50"
           x="42"
           class="cls-7" />
        <rect
           id="rect46"
           height="3"
           width="44"
           y="73"
           x="42"
           class="cls-11" />
        <rect
           id="rect48"
           height="3"
           width="44"
           y="57"
           x="42"
           class="cls-11" />
        <rect
           id="rect50"
           height="3"
           width="44"
           y="41"
           x="42"
           class="cls-11" />
        <polygon
           id="polygon52"
           points="84,91 84,94 89.002,94 90,91 "
           class="cls-12" />
        <polygon
           id="polygon54"
           points="44,91 44,94 38.998,94 38,91 "
           class="cls-12" />
        <path
           id="path56"
           d="m 44,91 v 5 a 1,1 0 0 1 -1,1 h -1.56 a 2.009,2.009 0 0 1 -1.9,-1.37 L 38,91"
           class="cls-13" />
        <path
           id="path58"
           d="m 84,91 v 5 a 1,1 0 0 0 1,1 h 1.56 a 2.009,2.009 0 0 0 1.9,-1.37 L 90,91"
           class="cls-13" />
        <polyline
           id="polyline60"
           points="36 35 36 91 38 91 44 91 84 91 90 91 92 91 92 35"
           class="cls-13" />
        <polygon
           id="polygon62"
           points="34,31 94,31 94,35 92,35 36,35 34,35 "
           class="cls-13" />
        <rect
           id="rect64"
           height="12"
           width="44"
           y="41"
           x="42"
           class="cls-13" />
        <rect
           id="rect66"
           height="12"
           width="44"
           y="57"
           x="42"
           class="cls-13" />
        <rect
           id="rect68"
           height="12"
           width="44"
           y="73"
           x="42"
           class="cls-13" />
      </g>
    </g>
  </g>
</svg>
