<svg xmlns="http://www.w3.org/2000/svg" viewBox="0 0 190 150"><defs><style>.cls-1{isolation:isolate;}.cls-2{fill:#d8dadd;}.cls-3{fill:#383838;opacity:0.2;mix-blend-mode:multiply;}.cls-4{fill:#fff;}.cls-5{fill:#359da0;}.cls-6{fill:#0066be;}.cls-7{fill:none;stroke:#359da0;stroke-miterlimit:10;}.cls-8{fill:#7bc2db;}.cls-9{fill:#0b80e0;}.cls-10{fill:#9ad386;}.cls-11{fill:#005582;}.cls-12{fill:#ebeff2;}.cls-13{fill:#181818;}</style></defs><title>iconRecycClearBag</title><g class="cls-1"><g id="iconRecycClearBag"><ellipse class="cls-2" cx="95" cy="132.5" rx="65" ry="12.5"/><path class="cls-3" d="M86.29,34.3s4.89,1.83-1.15,4C69,44.29,65.28,58.21,58.94,72.25c-1.13,2.51-.18,5.64.15,8.5.33,8.47-3.13,18.08.11,26.74.44,1.95-.48,4.92-1.36,7.89s-1.73,5.93-1.13,7.86c1.72,5.57,7.79,9.13,15.73,11a61.08,61.08,0,0,0,8.48,1.37c15.66.72,36,3.31,49.36-7.62,8.2-6.7-1.73-24-2.6-34.43-.86-3.49.86-7,1.73-10.48.86-7.86.13-9.54-1.94-17.46-.66-2.14-5-7.84-5.94-9.78-3.92-7.78-8.14-16.31-19.68-18.31C90.9,35.86,104,35.08,104,35.08s5.79-.39,1.18-2.88.7-5.48.7-5.48L99.11,27.9,95.8,25.68l-2.68,2.09s-4.23-1.57-2.79-4.57-9.07,3.66-9.07,5.22S78.37,34.3,86.29,34.3Z"/><path class="cls-4" d="M82.31,47c-2.25-1.09,4.33-1.82,7.69-6.08C90,40.94,85,48.3,82.31,47Zm17.58-2.36c1.39,1.75,3,3.27,4,2.36s.09-.61-1.42-1.56a45.66,45.66,0,0,1-5.1-4.52A35.3,35.3,0,0,0,99.89,44.66Zm-8,2.44c-.83,2.89-1.22,5.85.53,6.09a2.22,2.22,0,0,0,1.84-3.75C93.1,48.29,93.62,44,94,41.37A49.68,49.68,0,0,0,91.88,47.1ZM88.66,26.66s-2.58,2.47,0,6.4L91.24,37c-.54-.82-.32-2.15-.65-3.05-.48-1.33-1.75-2.56-1.77-4C88.82,29.3,90.09,26.66,88.66,26.66Zm4.48,9.89s2.57-5.82,4.73-5.82,0-1.45,0-1.45A6.87,6.87,0,0,0,93.14,36.55Z"/><path class="cls-5" d="M86.84,83.24a6.39,6.39,0,0,1-2.19,3.65,6.17,6.17,0,0,1-3.87,1.73L68.41,78.09,78,69.55Z"/><path class="cls-6" d="M78,69.55c-.48-.55-3,.92-5.68,3.28s-4.42,4.72-3.94,5.27,3-.92,5.68-3.28S78.5,70.1,78,69.55Z"/><line class="cls-7" x1="66.08" y1="73.09" x2="71.25" y2="75.32"/><path class="cls-8" d="M78.17,120,65.26,117.5s-.49-6.5.19-9.63A41.07,41.07,0,0,1,68.8,99l12.94,2.54a46,46,0,0,1-.57,9.51A92.48,92.48,0,0,1,78.17,120Z"/><polygon class="cls-9" points="81.7 101.64 68.77 99.04 69.02 97.76 81.96 100.36 81.7 101.64"/><ellipse class="cls-9" cx="73.43" cy="109.52" rx="3.93" ry="3.96"/><polygon class="cls-9" points="77.93 121.22 65.01 118.63 65.27 117.35 78.18 119.94 77.93 121.22"/><path class="cls-5" d="M125.19,118.47l-2.86.71a.23.23,0,0,0-.14.35l1.14,1.7a.23.23,0,0,0,.38,0l1.71-2.41A.23.23,0,0,0,125.19,118.47Z"/><polygon class="cls-10" points="112.4 128.93 111.04 126.89 122.52 119.07 123.88 121.1 112.4 128.93"/><polygon class="cls-5" points="122.48 122.05 121.12 120.02 121.84 119.53 123.2 121.56 122.48 122.05"/><polygon class="cls-5" points="113.08 128.46 111.72 126.43 112.44 125.94 113.8 127.97 113.08 128.46"/><path class="cls-5" d="M112.06,65.27l-2.93-.2a.23.23,0,0,0-.24.29l.57,2a.23.23,0,0,0,.36.12l2.36-1.77A.23.23,0,0,0,112.06,65.27Z"/><polygon class="cls-10" points="96.72 71.31 96.03 68.96 109.34 65.02 110.02 67.38 96.72 71.31"/><polygon class="cls-5" points="108.4 67.86 107.72 65.5 108.55 65.26 109.24 67.61 108.4 67.86"/><polygon class="cls-5" points="97.51 71.08 96.83 68.73 97.66 68.48 98.35 70.83 97.51 71.08"/><path class="cls-5" d="M86.35,95.87l.57,2.91a.23.23,0,0,0,.35.15L89,97.85a.23.23,0,0,0,0-.38l-2.31-1.83A.23.23,0,0,0,86.35,95.87Z"/><polygon class="cls-10" points="96.14 109.21 94.07 110.49 86.82 98.58 88.89 97.3 96.14 109.21"/><polygon class="cls-5" points="89.78 98.75 87.7 100.03 87.25 99.28 89.32 98 89.78 98.75"/><polygon class="cls-5" points="95.71 108.5 93.64 109.78 93.19 109.03 95.26 107.75 95.71 108.5"/><path class="cls-11" d="M88.45,112.2,85,115.67l11.38,11.47,3.44-3.47s1-2.95-3.73-7.71C91.81,111.64,88.45,112.2,88.45,112.2Z"/><path class="cls-8" d="M93.21,118.88c3.14,3.17,4.57,6.86,3.18,8.26s-5.05,0-8.2-3.21-4.57-6.86-3.18-8.26S90.07,115.71,93.21,118.88Z"/><path class="cls-11" d="M91.78,120.32c1.35,1.36,2,3,1.37,3.55s-2.17,0-3.52-1.38-2-3-1.37-3.55S90.43,119,91.78,120.32Z"/><polygon class="cls-11" points="96.39 127.14 98.99 129.76 98.33 128.57 99.5 129.25 98.82 128.07 99.99 128.76 100.01 128.73 99.34 127.55 100.41 128.15 99.79 127.1 100.96 127.78 100.28 126.61 101.44 127.29 100.76 126.12 101.93 126.8 101.25 125.63 102.41 126.31 99.81 123.69 96.39 127.14"/><polygon class="cls-11" points="108.74 102.52 118.65 109.22 112.91 117.84 103 111.14 108.74 102.52"/><path class="cls-5" d="M107.68,104.1l9.91,6.71.83-1.25-9.91-6.71-.83,1.25Z"/><path class="cls-5" d="M108.74,102.52l9.91,6.71c1.89-2.83-3.2-4-1.89-6,.81-1.22,3.42-3.55,4.6-5.32s1.12-4.22.7-4.5l-.08-.05c-.42-.28-2.69.58-3.87,2.36s-2.34,5.09-3.15,6.31C113.66,104,110.63,99.68,108.74,102.52Zm12.39-7.8a.48.48,0,0,1,.13.67.47.47,0,0,1-.66.13.48.48,0,0,1-.13-.67A.47.47,0,0,1,121.13,94.71Z"/><path class="cls-12" d="M111.64,117l1.27.86,1.82-2.73h0c-.57-.39.67-1.27-.22-1.87s-1.4,1.41-2.54.64.8-1.9-.58-2.83-1.81,1.58-3.24.61c-1.61-1.09,1.38-3.18.46-3.81-.71-.48-1.65,2.38-2.67,1.69-.76-.52.83-1.66-.24-2.43l-2.68,4,8.27,5.6Z"/><polygon class="cls-11" points="112.28 77.89 115.61 81.23 108.87 88.02 104.03 80.96 108.48 76.49 112.28 77.89"/><polygon class="cls-8" points="115.61 81.23 116.33 81.96 101.06 97.36 100.33 96.63 101.89 88.5 109.96 86.93 115.61 81.23"/><polygon class="cls-9" points="91.67 87.9 101.29 78.2 109.95 86.93 100.33 96.63 91.67 87.9"/><path class="cls-13" d="M111.15,83.06a2.88,2.88,0,0,1,4.09,0,2.93,2.93,0,0,1,0,4.12,2.88,2.88,0,0,1-4.09,0A2.93,2.93,0,0,1,111.15,83.06Z"/><polygon class="cls-4" points="110.86 79.33 107.88 82.33 106.52 80.96 108.87 78.6 110.86 79.33"/><path class="cls-13" d="M102.14,92.14a2.88,2.88,0,0,1,4.09,0,2.93,2.93,0,0,1,0,4.12,2.88,2.88,0,0,1-4.09,0A2.93,2.93,0,0,1,102.14,92.14Z"/><path class="cls-5" d="M104.9,93.48a1,1,0,0,1,0,1.44,1,1,0,0,1-1.43,0,1,1,0,0,1,0-1.44A1,1,0,0,1,104.9,93.48Z"/><path class="cls-5" d="M113.91,84.4a1,1,0,0,1,0,1.44,1,1,0,0,1-1.43,0,1,1,0,0,1,0-1.44A1,1,0,0,1,113.91,84.4Z"/></g></g></svg>